<svg
          width="24"
          height="24"
          viewBox="0 0 24 24"
          fill="none"
          xmlns="http://www.w3.org/2000/svg"
        >
          <path
            d="M21.3844 11.3631L7.89375 3.11314C7.78018 3.04309 7.64998 3.0046 7.51658 3.00165C7.38318 2.9987 7.25141 3.03139 7.13486 3.09635C7.0183 3.16132 6.92119 3.2562 6.85354 3.37121C6.78589 3.48623 6.75015 3.6172 6.75 3.75064V20.2506C6.75015 20.3841 6.78589 20.5151 6.85354 20.6301C6.92119 20.7451 7.0183 20.84 7.13486 20.9049C7.25141 20.9699 7.38318 21.0026 7.51658 20.9996C7.64998 20.9967 7.78018 20.9582 7.89375 20.8881L21.3844 12.6381C21.4952 12.5726 21.5869 12.4794 21.6507 12.3676C21.7145 12.2558 21.748 12.1293 21.748 12.0006C21.748 11.8719 21.7145 11.7455 21.6507 11.6337C21.5869 11.5219 21.4952 11.4286 21.3844 11.3631V11.3631Z"
            stroke="#475569"
            stroke-width="2"
            stroke-linecap="round"
            stroke-linejoin="round"
          />
        </svg>