<svg
          width="24"
          height="24"
          viewBox="0 0 24 24"
          fill="none"
          xmlns="http://www.w3.org/2000/svg"
        >
          <path
            d="M22.6406 11.3721L14.2781 5.99085C14.1644 5.91836 14.0332 5.87787 13.8984 5.87366C13.7636 5.86944 13.6302 5.90166 13.5121 5.96692C13.3941 6.03218 13.2958 6.12805 13.2277 6.24446C13.1596 6.36086 13.1241 6.49348 13.125 6.62835V17.3721C13.1241 17.507 13.1596 17.6396 13.2277 17.756C13.2958 17.8724 13.3941 17.9683 13.5121 18.0335C13.6302 18.0988 13.7636 18.131 13.8984 18.1268C14.0332 18.1226 14.1644 18.0821 14.2781 18.0096L22.6406 12.6284C22.7472 12.5618 22.8351 12.4692 22.896 12.3593C22.9569 12.2494 22.9889 12.1259 22.9889 12.0002C22.9889 11.8746 22.9569 11.751 22.896 11.6411C22.8351 11.5313 22.7472 11.4387 22.6406 11.3721V11.3721Z"
            stroke="#475569"
            stroke-width="2"
            stroke-linecap="round"
            stroke-linejoin="round"
          />
          <path
            d="M12.1406 11.3721L3.77814 5.99085C3.66441 5.91836 3.53323 5.87787 3.39842 5.87366C3.26361 5.86944 3.13016 5.90166 3.01213 5.96692C2.89409 6.03218 2.79584 6.12805 2.72771 6.24446C2.65958 6.36086 2.62411 6.49348 2.62502 6.62835V17.3721C2.62411 17.507 2.65958 17.6396 2.72771 17.756C2.79584 17.8724 2.89409 17.9683 3.01213 18.0335C3.13016 18.0988 3.26361 18.131 3.39842 18.1268C3.53323 18.1226 3.66441 18.0821 3.77814 18.0096L12.1406 12.6284C12.2472 12.5618 12.3351 12.4692 12.396 12.3593C12.4569 12.2494 12.4889 12.1259 12.4889 12.0002C12.4889 11.8746 12.4569 11.751 12.396 11.6411C12.3351 11.5313 12.2472 11.4387 12.1406 11.3721V11.3721Z"
            stroke="#475569"
            stroke-width="2"
            stroke-linecap="round"
            stroke-linejoin="round"
          />
        </svg>